<?xml version="1.0" encoding="UTF-8"?>
<svg id="Capa_1" data-name="Capa 1" xmlns="http://www.w3.org/2000/svg" version="1.1" viewBox="0 0 447 136">
  <defs>
    <style>
      .cls-1 {
        fill: #1a1a1a;
        stroke-width: 0px;
      }
    </style>
  </defs>
  <g>
    <path class="cls-1" d="M91,95.1c-.4-2.2.4-4,2.3-4.5.9-.2,2,0,3,.1.9.2,1.9.6,2.7,1,3.1,1.7,6.1,1.4,8.9-.5,3.3-2.2,7-3.6,10.8-4.9.4-.1.9-.3,1.3-.5.3-.2.6-.5.7-.7.4-.7,1-1.4,1.2-2.8.3-.8-.9-.7-1.3-.5-1.9.6-3.8,1.2-5.7,2-2.1.8-4.1,1.8-6.1,2.6-.5.2-1,.3-1.5.4,0-.1-.1-.2-.2-.3.3-.3.7-.6,1-.8,4.2-2.2,8.4-4.4,13.1-5.7,0,0,1.8-.7,1.8-.7,1.5-.8,4.8-13.9,4.2-14.4,0,0-1.1,0-1.1,0-.6-.4-1.1-.8-.9-1.6.1-.7-.2-.9-.7-1-2.8-.5-3.7-2.6-4.4-4.9-.3-1.2,0-1.8,1.2-2.3.2,0,.3-.1.5-.2.2-.2.7-.5.7-.6,0-.3-.4-.7-.7-.8-1.1-.4-2.3-.6-3.4-.9-2.7-.6-5.4-1.2-8.1-1.9-2.2-.6-4.3-1.6-5.8-3.3-.7-.8-1.1-1.8-1.4-2.8-.2-.9-.6-1.2-1.5-1.3-1.9-.3-3.7,0-5.4,1.1-1.1.7-2.2,1.5-3.2,2.3-.5.3-1.4.7-1,1,.2.2.5.5.7.7,1.5,1.6,3,2.6,5,2.4,1.5-.2,2.9,0,4.4.3.2,0,.3,0,.5,0-.3-1.9-1.2-5.1-2.9-4.8-.6,0-2.1.6-2.7.8-.8.3-1.7,1-2.1.3-.4-.8.3-1,.8-1.3,1.7-.7,2.9-1.1,4.7-1.1,1,0,1.7,1.1,1.9,1.5,1.2,2.5,1.2,2.9,2.2,5.9,0,0,0,.2,0,.3,0,.5-.5.9-1,.8,0,0,0,0-.2,0-1.9-1.3-4-1.1-6.2-.8-.9.1-1.6,0-2.3-.7-1.3-1.2-2.8-2.2-4.1-3.4-1.2-1-1.1-1.3.1-2.2,2-1.4,3.9-2.8,5.8-4.3,1.3-1,2.6-1.4,4.2-.8.1,0,.3,0,.7,0-.5-.7-.9-1.2-1.3-1.6-2.2-2.1-5-3.4-7.7-4.7-1.1-.5-2.1-1.1-3.2-1.6v-.4c.8.1,1.5.2,2.2.3,4.6,1.2,8.5,3.6,11.9,6.8,1.1,1,1.8,2.1,2,3.6.1.9.5,1.7.9,2.5.2.4.7.7,1.2,1.3,0-.7.2-1,.2-1.3,0-1,0-2.1-.2-3.1-.2-1.2-1.4-2.9-2.1-3.3-5.5-3.2-7.5-5-11.3-10-2.9-3.1-7.2-3-9-2.9-3.4.2-2.6.1-6,.2-1.2,0-2.4.3-3.4.8-3.2,1.4-6.4,2.9-9.5,4.6-2.2,1.2-4.5,2.1-7,2.1-.9,0-1.5.4-2,1.1-1.6,2.6-1.8,1.7-.3,4.7,2.5,5,1.2,7.8.2,18,0,1.8-.7,5.2-.5,7.7,0,.8.8,1.4,1.6,1.3,4.5-.2,11.3-7.6,12.8-8.6,1.7-1.2,2.6-2.9,3.4-4.6,2.1-4.5,3.6-15.5,2.6-20.5-.1-.6.1-1.3.4-1.8.4-.8.9-1.5,1.3-2.3.2,0,.2,0,.4,0,0,.3,0,.6,0,.9,0,1.3-.2,2.7,0,4,.7,5.5-.7,16.9-3.5,21.7-.4.8-1.1,1.4-1.7,2.1-.2.2-.4.6-.4.9.1,5.9,0,5.4-1.2,11.1-.6,2.8,0,5.2,1.2,7.7,1.3,2.9,2.6,5.7,4,8.6,1.7,3.6,3.5,7.2,5.2,10.8.3.6.7,1.1,1.1,1.6.2.3.3.6.4,1-4.8-2-9.4-4.4-12.8-8.5-.2.1-.2,0-.4.2.3.7.5,1.4.8,2.1-.2.1-.2,0-.4.2-5.7-8.3-7.7-5.5-9.2-11.5-.5,4.1.4,6.7.7,8.3.8,4.1,2.8,7.7,4.7,11.2,0,0-.2.2-.3.2-.3-.2-.7-.4-1-.7-3.3-3-4.9-6.8-5.7-11.1-1-5.1-.8-6.2,0-11.2.4-2.3.4-1.7.9-4,0-.3.2-1.7.3-2,.1,0,.2,0,.4,0,.1.5.3,1.9.3,2.4,0,1.6.5,3.2.6,4.9.4,3.1,4.6,6.7,7.9,9.2,2.6,2.3,5.3,4.3,8.2,6.1.2.2.5.3,1,.2-.2-.3-.3-.7-.5-1-3.2-5-5.5-10.5-7.8-16-.5-1.2-.9-2.3-1.4-3.5-.6-1.2-.6-2.4-.4-3.7.7-4.3.9-2.5,1.5-6.8.2-1.3.2-2.6.2-3.9-.1,0-.2,0-.3-.2-.6.4-1.2.8-1.7,1.3-1.6,1.3-6.2,5.2-8,5.9-1.7.7-6.3,1.7-6.5-1-.2-2.7,0-4.1.1-5.7.3-2,.4-2.9.5-4.4,0-2.7.5-5.1.7-8.2q0-.4.2-2.1c-.2.2-2.8,11.6-2.8,11.9,0,.6.5-1.3-1,3.3-1.9,6.2-4,12.3-6,18.4-.3,1-.2,1.8.6,2.5,5.1,4.8,10,9.8,14.2,15.4.6.8,1.3,1.6,2,2.3,0,0-.2.2-.2.3-.3-.2-.8-.3-1-.6-1.9-2-3.8-4-5.8-5.9-3.3-3.2-6.7-6.4-10.1-9.6-.6-.6-1-.5-1.2.3,0,0,0,0,0,0-.9,3.5-1.4,2.4,1.3,5,3.8,3.5,7.7,6.8,12,9.6,4,2.6,8.2,4.7,12.5,6.6.2,0,.4.2.5.3.5.2,1.1.4.8,1-.1.3-1,.4-1.4.2-2.6-1-5.3-2-7.8-3.3-6.9-3.5-13.1-8.1-18.7-13.5-.3-.3-.6-.7-1-.9-1.4-.7-1.4-1.8-.9-3.1,2-6,3.9-11.9,5.9-17.9,2.5-7.6,1.8-4.3,4.3-11.8,2.2-7.8,3.7-13.3,2.9-14.6-.8-1.3-1.5-2.7-2-4.1-.2-.5-.2-1.2,0-1.6.8-1.3,1.7-2.5,2.7-3.7.4-.4,1-.9,1.5-.9,3.2.4,5.8-1,8.5-2.4,2.6-1.4,5.4-2.4,8-3.8,2.1-1.2,4.1-1.3,6.4-1.2,3.6,0,3.1,0,6.7-.1.9,0,4.8,0,7.5,2.9,4.1,6,5.4,7.1,11.7,10.8.8.5,2.1,2,2.5,4.1.1.5.2,1.1.2,1.6,0,1.2,0,1.9,0,2.6.2,1.6.3,1.9,1.8,2.2,5.8,1.4,11.5,2.8,17.3,4.2,1.4.3,2.6,1,3.3,2.3.4.8.8,1.7.7,2.5-.5,4.7-3.4,13.3-4.2,18-2.7,11.3-3.7,14.8-4.6,17.5-.2.5-.1.6-.4,1.1,0,0-.1.1-.2.2-.1.1-.3.2-.5.1h0c-.2,0-.3-.3-.3-.5h0c0-.3,0-.2,0-.6,0-.1.5-1.7.5-1.8.8-2.5,6.2-21,6.8-25.6,0-.4,0-.8,0-1.2,0-.1,0-.2-.2-.2h0c-.1,0-.2,0-.3.1-.1.3-.3.6-.3.8-.7,3.7-5.9,20.7-6.7,24.3-.5,2.3-1.4,4.5-3.3,6-.2.2-.4.3-.7.5-3.5,2.6-7.7,4-12.1,4.2-4.9.2-7.1.2-7.2,0-.1-.2,0-.3,0-.5.3-.5.9-.9,1.5-.8,11.7.8,16.7-3.7,18.8-6.4.7-.9,1.1-2,.9-3.3-.4.2-.7.3-.9.5-3,2.1-5.9,4.3-9,6.3-2.2,1.4-4.5,2.6-7.2,2.5-1.2,0-2.2,0-3.4,0-.8,0-1.5.4-1.7.8-.2.3-.4,1-.6,1.5-.4,1,.2,2,.4,2.7,1.9,5.1,6.5,1,8.4,6,.5,1.4.4,1.5-1,1.5-5.3,0-10.7.2-16.1,0-4.2-.2-8.4-.9-12.6-1.4-.2,0-.5-.3-.7-.5.2-.2.3-.4.6-.6,1-.8,2.1-.9,3.3-.6,4.1.9,8.3,1.3,12.5,1.2,3.5,0,7,0,10.5,0,.5,0,.8-.1.8-.4,0-.3-.2-.5-.4-.6-3.7-1-5.2-.3-6.8-4.4-1.5,2.5-1.9,3.1-4.1,4.5-.1,0-.3,0-.4,0h0c0,0,0-.2,0-.3.2-.3.6-.6.8-.9.8-1,1.5-1.4,2.3-3.3.4-1,.8-2.5,1-3.1.2-.8.2-1,.2-1.5,0-1-.9-1.7-2.1-2.1-1.1-.5-2.7-1.6-2.8-2.3h0ZM121.2,87.1h0c0-.1-.1-.2-.3-.2-.4,0-.9,0-1.2.2-3.3,1.7-6.6,3.3-9.8,5.1-2.7,1.6-5.4,3-8.6,2.3-1.3-.3-2.6-.9-3.9-1.3-1.1-.3-2.2-.5-3.3-.5-.4,0-1.1.3-1.3,1-.1.4.2,1,.6,1.3.5.4,1.1.7,1.7.9,1.6.4,3.3.7,4.9,1,3.2.5,6.1-.4,8.7-2.1,3.8-2.6,7.6-5.4,12-7.1,0,0,.2-.1.3-.2,0,0,0-.1,0-.2ZM125.8,55.1c-.7.2-1.6.3-2.9.6-1.7.4-1,2.1,0,3.6.7,1.2,1.5,1.4,2.7.8.8-.4,1.6-.5,2.3.1.6.6.5,1.3.1,2-.2.3-.2.9,0,1.1.3.3.9.5,1.3.4.7,0,.8-1.3.9-1.7.3-1.3.2-2,.4-3.4.3-1.9-2.1-3.5-4.6-3.5Z"/>
    <path class="cls-1" d="M60.2,63.4c-.1,0-.3,0-.3-.2-.2-.6-.5-1.2-.3-1.8,5.8-17.4,4.7-15.5,1.6-21.3-.3-.6-.7-1.1-1-1.8-.2-.4-.2-.9-.3-1.4l.3-.3c.3.3.7.6,1,1.1,1.4,2.3,2.7,4.6,4,6.9.2.3.3.6.4.9.3,2.4-4.5,14.8-5.2,17.6,0,.1,0,.2-.2.2h0Z"/>
  </g>
  <g>
    <path class="cls-1" d="M191.6,42.9c4.2,4.1,6.6,8.7,7,13.9h-8.1c-.9-3.9-2.7-7.1-5.4-9.4-2.7-2.3-6.5-3.5-11.3-3.5s-10.7,2.1-14.3,6.4-5.5,10.7-5.5,19.5,1.6,13,4.9,17.5c3.3,4.5,8.2,6.7,14.7,6.7s10.6-2.3,13.7-7c1.7-2.5,2.9-5.7,3.7-9.8h8.1c-.7,6.4-3.1,11.9-7.1,16.2-4.8,5.3-11.3,7.9-19.4,7.9s-12.9-2.2-17.7-6.5c-6.3-5.7-9.4-14.5-9.4-26.4s2.4-16.4,7.1-22.2c5.1-6.3,12.2-9.4,21.1-9.4s13.6,2,17.8,6.1Z"/>
    <path class="cls-1" d="M216.5,55v29.6c0,2.3.4,4.1,1.1,5.6,1.3,2.7,3.7,4,7.3,4,5.1,0,8.6-2.3,10.4-7,1-2.5,1.5-5.9,1.5-10.3v-21.9h7.5v44.6h-7.1v-6.6c-.9,1.7-2.1,3.1-3.5,4.3-2.8,2.3-6.2,3.5-10.2,3.5-6.2,0-10.5-2.1-12.8-6.4-1.2-2.3-1.8-5.3-1.8-9.1v-30.3h7.7Z"/>
    <path class="cls-1" d="M260.9,85.6c.2,2.5.9,4.4,1.9,5.8,1.9,2.4,5.3,3.6,10,3.6s5.3-.6,7.5-1.8,3.2-3.1,3.2-5.6-.9-3.4-2.6-4.4c-1.1-.6-3.3-1.3-6.5-2.1l-6.1-1.5c-3.9-.9-6.7-2-8.6-3.2-3.3-2-4.9-4.8-4.9-8.4s1.5-7.6,4.6-10.3c3.1-2.6,7.2-3.9,12.4-3.9s11.7,2,14.7,5.9c1.9,2.5,2.8,5.2,2.7,8.1h-7.1c-.1-1.7-.8-3.2-1.8-4.6-1.8-2-4.8-2.9-9.2-2.9s-5.1.5-6.6,1.6-2.2,2.5-2.2,4.3,1,3.5,2.9,4.7c1.1.7,2.8,1.3,5,1.8l5.1,1.2c5.5,1.3,9.2,2.6,11,3.8,2.9,1.9,4.4,4.9,4.4,9s-1.5,7.4-4.6,10.3c-3.1,2.9-7.7,4.3-13.9,4.3s-11.5-1.5-14.3-4.5c-2.8-3-4.3-6.7-4.5-11.2h7.2Z"/>
    <path class="cls-1" d="M300.6,42.5h7.6v12.5h7.1v6.1h-7.1v29.1c0,1.6.5,2.6,1.6,3.1.6.3,1.6.5,2.9.5s.8,0,1.2,0,.9,0,1.5-.1v6c-.9.3-1.8.4-2.7.5-.9.1-1.9.2-3,.2-3.5,0-5.9-.9-7.1-2.7s-1.9-4.1-1.9-7v-29.5h-6v-6.1h6v-12.5Z"/>
    <path class="cls-1" d="M355.2,59.4c3.9,3.8,5.9,9.5,5.9,16.9s-1.7,13.1-5.2,17.8c-3.5,4.7-8.9,7-16.2,7s-10.9-2.1-14.5-6.2c-3.6-4.2-5.4-9.7-5.4-16.7s1.9-13.5,5.7-17.9c3.8-4.4,8.9-6.7,15.2-6.7s10.5,1.9,14.5,5.7ZM350.5,89.1c1.8-3.8,2.7-7.9,2.7-12.6s-.7-7.5-2-10.2c-2.1-4.1-5.7-6.2-10.8-6.2s-7.8,1.7-9.9,5.2-3.1,7.7-3.1,12.7,1,8.7,3.1,11.9c2.1,3.2,5.3,4.7,9.8,4.7s8.3-1.9,10.1-5.6Z"/>
    <path class="cls-1" d="M374.7,85.6c.2,2.5.9,4.4,1.9,5.8,1.9,2.4,5.3,3.6,10,3.6s5.3-.6,7.5-1.8,3.2-3.1,3.2-5.6-.9-3.4-2.6-4.4c-1.1-.6-3.3-1.3-6.5-2.1l-6.1-1.5c-3.9-.9-6.7-2-8.6-3.2-3.3-2-4.9-4.8-4.9-8.4s1.5-7.6,4.6-10.3c3.1-2.6,7.2-3.9,12.4-3.9s11.7,2,14.7,5.9c1.9,2.5,2.8,5.2,2.7,8.1h-7.1c-.1-1.7-.8-3.2-1.8-4.6-1.8-2-4.8-2.9-9.2-2.9s-5.1.5-6.6,1.6-2.2,2.5-2.2,4.3,1,3.5,2.9,4.7c1.1.7,2.8,1.3,5,1.8l5.1,1.2c5.5,1.3,9.2,2.6,11,3.8,2.9,1.9,4.4,4.9,4.4,9s-1.5,7.4-4.6,10.3-7.7,4.3-13.9,4.3-11.5-1.5-14.3-4.5c-2.8-3-4.3-6.7-4.5-11.2h7.2Z"/>
  </g>
</svg>